<?xml version="1.0" standalone="no"?><!DOCTYPE svg PUBLIC "-//W3C//DTD SVG 1.1//EN" "http://www.w3.org/Graphics/SVG/1.1/DTD/svg11.dtd"><svg t="1580980937190" class="icon" viewBox="0 0 1024 1024" version="1.1" xmlns="http://www.w3.org/2000/svg" p-id="2124" xmlns:xlink="http://www.w3.org/1999/xlink" width="200" height="200"><defs><style type="text/css"></style></defs><path d="M841.1 830.5v-4.2-33.2c0-5.5-0.5-10.9-1.4-16.2h66.6v-16.6-32.7c0-30-58.5-73.9-149.7-117.4-23.7-11.5-75.9-31.6-78.3-32.7-21.9-10.4-33.4-25.3-33.4-48.6 0-18 6.6-33.3 18.9-49.6 3.1-4.2 6.5-8.3 11.2-13.7-0.9 1 8.5-9.8 10.9-12.7 4.9-5.8 8.6-10.6 11.9-15.4 25.7-37.6 34-79.3 34-127.5 0-59.3-19.7-97.6-53.4-121-22.8-15.9-51.2-23.5-69.6-23.5h-16.7c-11.2 0-26 2.8-41.1 8.6-24.6-11.6-50.2-17.9-72-19.3 4.1-3.5 8.4-6.8 12.9-9.9 32.5-22.6 71.6-33.1 100.2-33.1h16.7c28.7 0 67.7 10.5 100.2 33.1 48.2 33.5 76.4 88.3 76.4 165 0 58.1-10.2 109.3-43.4 157.8-4.4 6.5-9.2 12.6-15.2 19.7-1.9 2.3-3.9 4.6-5.9 6.8l-5.4 6.3c-3.9 4.6-6.6 7.9-8.9 10.9-5.4 7.2-7.7 12.1-8.1 16.2 0.7 0.4 1.6 0.8 2.8 1.4-0.1 0 52.1 20.1 78.4 32.8 113.1 54 180.2 104.4 180.2 165.8v-4.1 102.8H841.1v4.2z m-58.1-17v-4.1 102.8H64V842v-32.6c0-61.4 67.1-111.8 180.1-165.8 26.2-12.7 78.5-32.8 78.4-32.8 0.9-0.5 1.9-0.9 2.8-1.4-0.4-4.2-2.7-9-8.1-16.2-2.3-3-5-6.3-8.9-10.9l-5.4-6.3c-2-2.3-3.9-4.5-5.9-6.8-5.9-7-10.7-13.2-15.2-19.7-33.2-48.5-43.4-99.8-43.4-157.8 0-76.7 28.2-131.5 76.4-165 32.5-22.6 71.6-33.1 100.2-33.1h16.7c28.7 0 67.7 10.5 100.2 33.1 48.2 33.5 76.4 88.3 76.4 165 0 58.1-10.2 109.3-43.4 157.8-4.4 6.5-9.2 12.6-15.2 19.7-1.9 2.3-3.9 4.6-5.9 6.8l-5.4 6.3c-3.9 4.6-6.6 7.9-8.9 10.9-5.4 7.2-7.7 12.1-8.1 16.2 0.7 0.4 1.6 0.8 2.8 1.4-0.1 0 52.1 20.1 78.4 32.8C715.9 701.6 783 752.1 783 813.5z m-53.6 46.7V845.9v-32.7c0-30-58.5-73.9-149.7-117.4-23.7-11.5-75.9-31.6-78.3-32.7-21.9-10.4-33.4-25.3-33.4-48.6 0-18 6.6-33.3 18.9-49.6 3.1-4.2 6.5-8.3 11.2-13.7-0.9 1 8.5-9.8 10.9-12.7 4.9-5.8 8.6-10.6 11.9-15.4 25.7-37.6 34-79.3 34-127.5 0-59.3-19.7-97.6-53.4-121-22.8-15.9-51.2-23.5-69.6-23.5h-16.7c-18.4 0-46.7 7.6-69.6 23.5-33.6 23.4-53.4 61.7-53.4 121 0 48.2 8.3 90 34 127.5 3.3 4.8 7.1 9.6 11.9 15.4 2.5 2.9 11.8 13.7 10.9 12.7 4.7 5.4 8 9.5 11.2 13.7 12.3 16.3 18.9 31.6 18.9 49.6 0 23.4-11.6 38.2-33.4 48.6-2.4 1.2-54.6 21.3-78.3 32.7-91.2 43.5-149.7 87.5-149.7 117.4V862.5h611.7V860v0.2z" p-id="2125"></path></svg>