<?xml version="1.0" standalone="no"?><!DOCTYPE svg PUBLIC "-//W3C//DTD SVG 1.1//EN" "http://www.w3.org/Graphics/SVG/1.1/DTD/svg11.dtd"><svg t="1582770799319" class="icon" viewBox="0 0 1024 1024" version="1.1" xmlns="http://www.w3.org/2000/svg" p-id="3117" xmlns:xlink="http://www.w3.org/1999/xlink" width="200" height="200"><defs><style type="text/css"></style></defs><path d="M679.4 151.7c45.4 0 85.3 32.5 94.9 77.2 8 37.6 41.6 65 79.9 65 58.4 0 105.8 47.7 105.8 106.5v365.5c0 58.7-47.4 106.5-105.8 106.5H169.8C111.4 872.3 64 824.6 64 765.9V400.4c0-58.7 47.4-106.5 105.8-106.5 38.3 0 71.9-27.4 79.9-65 9.5-44.7 49.4-77.2 94.9-77.2h334.8zM512.1 372.2c-103.2 0-187.2 84.6-187.2 188.5s83.9 188.5 187.2 188.5c103.2 0 187.2-84.6 187.2-188.5s-84.1-188.5-187.2-188.5z m-9.8 71.6c59 0 107 48.1 107.1 107.1 0 59.1-48.1 107.1-107.1 107.1-59.1 0-107.1-48.1-107.1-107.1-0.1-59.1 48-107.1 107.1-107.1z" p-id="3118"></path></svg>