<?xml version="1.0" standalone="no"?><!DOCTYPE svg PUBLIC "-//W3C//DTD SVG 1.1//EN" "http://www.w3.org/Graphics/SVG/1.1/DTD/svg11.dtd"><svg t="1583199202526" class="icon" viewBox="0 0 1024 1024" version="1.1" xmlns="http://www.w3.org/2000/svg" p-id="4917" xmlns:xlink="http://www.w3.org/1999/xlink" width="200" height="200"><defs><style type="text/css"></style></defs><path d="M524.9 960c249-29.4 366-140.4 350.8-333-10.6-80.8-54.8-168-132.8-261.4-42.1-67-45.9-131.6-11.4-193.6-69.9 8.7-104.9 50.2-104.9 124.5C576.2 241.1 576 163.6 626 64c-123.3 10-198.9 58.2-227 144.6-12.3 47.6-18.4 99.3-18.4 155.1 0 13.1-14.5 33.9-25.9 39.9-16.1 8.5-41.5-1.3-50.7-16.4-2.1-3.5-2.3-9.9-3.3-14.1-2.5-10.9-5.3-21.7-8.7-32.4-6.8-21.4-16.3-42.2-31.1-59.3-10.9-12.5-25.1-23.1-41.5-25.6 6.4 51.8 11.5 106.3-8.5 154.4-7.7 18.7-18.9 35.6-28.4 53.4-9.6 17.8-14.8 36.2-20.5 55.4-20.1 67.6-29.9 142.6-10 211.4 19.1 66.2 64.9 119 121.7 156.4 71.2 48.8 154.9 73.2 251.2 73.2z" p-id="4918"></path></svg>