<?xml version="1.0" standalone="no"?><!DOCTYPE svg PUBLIC "-//W3C//DTD SVG 1.1//EN" "http://www.w3.org/Graphics/SVG/1.1/DTD/svg11.dtd"><svg t="1582885915567" class="icon" viewBox="0 0 1024 1024" version="1.1" xmlns="http://www.w3.org/2000/svg" p-id="3266" xmlns:xlink="http://www.w3.org/1999/xlink" width="200" height="200"><defs><style type="text/css"></style></defs><path d="M328.3 743.6c0 22 17.9 39.9 39.9 39.9h287.6c22 0 39.9-17.9 39.9-39.9V319.9H328.3v423.7zM600 431.5c0-13.3 10.7-24 24-24s24 10.7 24 24v255.8c0 13.3-10.7 24-24 24s-24-10.7-24-24V431.5z m-112 0c0-13.3 10.7-24 24-24s24 10.7 24 24v255.8c0 13.3-10.7 24-24 24s-24-10.7-24-24V431.5z m-112.1 0c0-13.3 10.7-24 24-24s24 10.7 24 24v255.8c0 13.3-10.7 24-24 24-12.8 0-23.5-10.7-24-24V431.5zM616.5 248.3c0-4.6-3.6-8.2-8.2-8.2H416.4c-4.6 0-8.2 3.6-8.2 8.2v24h208.3v-24z" p-id="3267"></path><path d="M842 64H182c-64.9 0-118 53.1-118 118v660c0 64.9 53.1 118 118 118h660c64.9 0 118-53.1 118-118V182c0-64.9-53.1-118-118-118z m-26.6 255.9h-71.6v423.6c0 48.6-39.4 88-88 88H368.2c-48.6 0-88-39.4-88-88V320.4h-71.6c-13.3 0-24-10.7-24-24s10.7-24 24-24h152v-24c0.1-30.8 25-55.7 55.8-55.8h191.8c30.7 0 55.8 25.1 55.8 55.8v24h151.5c13.3 0 24 10.2 24 23.5-0.1 13.2-10.8 24-24.1 24z" p-id="3268"></path></svg>