<?xml version="1.0" standalone="no"?><!DOCTYPE svg PUBLIC "-//W3C//DTD SVG 1.1//EN" "http://www.w3.org/Graphics/SVG/1.1/DTD/svg11.dtd"><svg t="1582885908425" class="icon" viewBox="0 0 1024 1024" version="1.1" xmlns="http://www.w3.org/2000/svg" p-id="3147" xmlns:xlink="http://www.w3.org/1999/xlink" width="200" height="200"><defs><style type="text/css"></style></defs><path d="M842 64H182c-64.9 0-118 53.1-118 118v660c0 64.9 53.1 118 118 118h660c64.9 0 118-53.1 118-118V182c0-64.9-53.1-118-118-118z m-68 138.5l3-2.9 0.9-0.9c10.8-10.6 28.1-10.5 38.7 0.2l10.2 10.5c10.6 10.8 10.5 28.1-0.2 38.7l-0.9 0.9-3 2.9-19.5 19.2-48.7-49.4 19.5-19.2z m13.6 84.1L573 499.3l-48.7-49.4 214.6-212.7 48.7 49.4z m-230.2 228l-66.6 18.2 17.9-67.7 48.7 49.5zM837 757.2c0 43.9-35.9 79.8-79.8 79.8H266.8c-43.9 0-79.8-35.9-79.8-79.8V266.8c0-43.9 35.9-79.8 79.8-79.8H676l-49.8 49.8H296.7c-32.9 0-59.8 26.9-59.8 59.8v430.7c0 32.9 26.9 59.8 59.8 59.8h430.7c32.9 0 59.8-26.9 59.8-59.8V426.1l49.8-49.8v380.9z" p-id="3148"></path></svg>