<?xml version="1.0" standalone="no"?><!DOCTYPE svg PUBLIC "-//W3C//DTD SVG 1.1//EN" "http://www.w3.org/Graphics/SVG/1.1/DTD/svg11.dtd"><svg t="1580874052987" class="icon" viewBox="0 0 1024 1024" version="1.1" xmlns="http://www.w3.org/2000/svg" p-id="2261" xmlns:xlink="http://www.w3.org/1999/xlink" width="200" height="200"><defs><style type="text/css"></style></defs><path d="M89.580235 954.184582l0.12163-6.324741c1.216296-84.167716 27.245041-165.173061 75.288751-234.015441 48.16534-69.08564 114.940017-121.751277 193.14788-152.401948C285.890486 510.966148 242.833591 428.501247 242.833591 340.806272c0-148.509799 120.899869-269.288039 269.531298-269.288039 148.631429 0 269.531298 120.77824 269.531298 269.288039 0 87.816605-43.178525 170.403136-115.548165 220.879439 78.086234 30.650671 144.73928 83.316308 192.782991 152.401948 47.922081 68.84238 73.950826 149.726096 75.167122 233.772182l0.12163 6.324741h-76.748308l-0.121629-6.081482c-2.675852-168.092172-130.265352-312.588193-296.65471-336.427604l-3.40563-0.486519c-12.406224-1.581185-27.001782-2.432593-43.421784-2.432593-23.596152 0-42.935265 1.702815-43.178525 1.702815-171.497803 20.068892-302.857822 165.173061-305.533674 337.522271l-0.121629 6.081483-75.653641 0.121629z m422.906284-815.040266c-111.291127 0-201.905214 90.492458-201.905215 201.661956 0 111.291127 90.614087 201.783585 201.905215 201.783584s201.905214-90.492458 201.905214-201.783584c-0.12163-111.169498-90.614087-201.661955-201.905214-201.661956z m0 0" p-id="2262"></path></svg>