<?xml version="1.0" standalone="no"?><!DOCTYPE svg PUBLIC "-//W3C//DTD SVG 1.1//EN" "http://www.w3.org/Graphics/SVG/1.1/DTD/svg11.dtd"><svg t="1582445977773" class="icon" viewBox="0 0 1024 1024" version="1.1" xmlns="http://www.w3.org/2000/svg" p-id="5215" xmlns:xlink="http://www.w3.org/1999/xlink" width="200" height="200"><defs><style type="text/css"></style></defs><path d="M511.9 640.1c-70.6 0-128.1-57.4-128.1-128.1s57.4-128.1 128.1-128.1c70.6 0 128.1 57.4 128.1 128.1s-57.4 128.1-128.1 128.1m0-320.1c-106.1 0-192 86-192 192 0 106.1 86 192 192 192s192-85.9 192-192-85.8-192-192-192m181.3 415.6c-12.7 10.3-26.2 19.5-40.5 27.5-1.3 0.7-2.3 1.5-3.6 2.1-11 5.8-22.3 11-34 15.4l-19.5 73-9.3 34.6c-0.6 0.1-1.2 0.3-1.8 0.4l-8.7 1.7c-3.5 0.7-7.1 1.1-10.7 1.6-17.6 2.5-35.3 3.8-53 3.8-5.2 0-10.5-0.1-15.6-0.3l-8.6-0.4c-9.6-0.6-19.2-1.6-28.8-2.9-3.5-0.5-7.1-1-10.6-1.6-2.9-0.5-5.8-1.1-8.7-1.6l-1.8-0.4-9.3-34.6-19.6-73.1c-16.6-6.4-32.6-14.4-47.8-23.8-10.6-6.4-20.7-13.5-30.3-21.3l-73 19.5-34.6 9.3-1.2-1.4-5.8-6.7c-2.3-2.8-4.5-5.6-6.8-8.5-6-7.6-11.7-15.4-16.9-23.4-1.6-2.3-3.1-4.8-4.7-7.2-5.6-8.8-10.9-17.9-15.6-27.2-1.4-2.5-2.6-5.1-4-7.7-1.6-3.1-3.1-6.2-4.5-9.3-2.5-5.6-5.1-11.3-7.3-17-1.4-3.3-2.7-6.7-4-10l-3-8.5-0.6-1.6 25.2-25.2 53.5-53.6c-2.2-13.7-3.4-27.5-3.7-41.3 0-1.3-0.2-2.5-0.2-3.8 0-1.3 0.2-2.4 0.2-3.7 0.3-13.8 1.5-27.6 3.7-41.3l-53.5-53.6-25.2-25.2c1.2-3.4 2.3-6.8 3.5-10.1 1.3-3.4 2.6-6.7 4-10 13.2-32.9 31.1-63.8 53-91.8 2.2-2.8 4.5-5.7 6.7-8.4l5.8-6.7 1.2-1.4 34.6 9.3 73 19.5c9.6-7.8 19.7-14.7 30.3-21.3l4.1-2.4c14-8.4 28.6-15.4 43.8-21.3l19.6-73.1 9.3-34.6 1.7-0.4c2.9-0.6 5.7-1.2 8.7-1.6 3.5-0.6 7.2-1.2 10.8-1.6 6.1-0.9 12.1-1.6 18.4-2.2 6.3-0.6 12.6-1 19-1.2 5.1-0.2 10.4-0.4 15.6-0.4 5.2 0 10.5 0.2 15.6 0.4 6.3 0.2 12.7 0.6 19 1.2 6.1 0.6 12.2 1.4 18.3 2.2 3.6 0.5 7.2 1 10.8 1.6l8.7 1.7 1.8 0.4 9.3 34.6 19.5 73c11.8 4.5 23.2 9.5 34.1 15.4 1.3 0.7 2.4 1.5 3.6 2.1 14.3 8.1 27.9 17.2 40.5 27.5l73-19.6 34.5-9.2 1.3 1.4c1.9 2.2 3.9 4.5 5.7 6.8 2.3 2.7 4.5 5.6 6.7 8.5 3.9 4.9 7.6 9.8 11.2 14.9 1.9 2.8 3.9 5.7 5.8 8.5l4.7 7.2c7.2 11.3 13.7 22.9 19.6 34.9 4.3 8.6 8.2 17.4 11.8 26.3 1.4 3.3 2.7 6.7 4 10 1.1 2.8 1.9 5.5 2.9 8.4 0.2 0.6 0.3 1.2 0.6 1.8l-78.8 78.8c1.9 12.1 3.1 24.4 3.5 36.9 0.1 2.7 0.4 5.4 0.4 8.2 0 2.7-0.3 5.4-0.4 8.2-0.4 12.3-1.6 24.7-3.5 36.8l78.8 78.8-0.6 1.7c-1 2.8-1.9 5.6-2.9 8.4-1.3 3.4-2.6 6.7-4 10.1-3.6 8.9-7.5 17.7-11.8 26.3-3.6 7.3-7.5 14.4-11.5 21.5-2.6 4.6-5.3 9-8.2 13.4-1.6 2.3-3.1 4.8-4.7 7.1-5.2 8.1-11 15.9-17 23.4-2.2 2.9-4.5 5.7-6.7 8.4-1.9 2.3-3.9 4.5-5.8 6.8-0.4 0.5-0.8 0.9-1.3 1.4l-34.6-9.2-72.8-20zM388 875c-2.6-0.9-5.2-1.8-7.9-2.7l-3.3-1.3-3.3-1.3c4.9 1.9 9.8 3.6 14.9 5.2h-0.4z m-119.4-66.5l-2.6-2.2c-2.1-1.8-4.2-3.7-6.3-5.5l-0.3-0.2c4 3.5 8 7 12.1 10.3l-2.9-2.4z m623.8-245.7l-0.3-0.3-29.1-29.2c0.4-7.1 1.1-14.2 1.1-21.4 0-7.2-0.7-14.3-1.1-21.4l84.1-84.1c-4.9-19.5-11-38.7-18.4-57.4-8.1-21.1-17.7-41.5-28.8-61-11.5-19.8-24.6-38.1-38.5-55.5-12.4-15.7-26-30.7-40.5-44.7l-74.8 20h-0.1l-0.2 0.1h-0.2l-39.3 10.7c-12-7.9-24.6-15.1-37.5-21.4l-10.6-39.6v-0.3l-0.1-0.2v-0.1l-20-74.7c-19.3-5.5-39-9.8-58.9-12.7C557 66 534.5 64.1 512 64c-22.9 0-45.3 2.2-67.2 5.5-20.1 3-39.7 7.1-58.9 12.7l-20 74.7v0.1l-0.1 0.2v0.3l-10.7 39.6c-12.9 6.5-25.6 13.5-37.5 21.5L278.2 208l-0.1-0.1h-0.2l-0.2-0.1h-0.1l-74.7-20.1c-14.5 13.8-27.9 28.8-40.5 44.7-14.2 17.5-27.1 36-38.5 55.5-11.5 19.8-20.7 40.3-28.8 61-7.4 18.7-13.6 37.9-18.5 57.4l54.7 54.7v0.1l0.3 0.3 29.2 29.1c-0.4 7.1-1.1 14.1-1.1 21.3 0 7.2 0.7 14.2 1.1 21.3l-29.4 29.4-54.8 55c4.7 19.3 11 38.5 18.4 57.3 8.2 20.7 17.4 41.2 28.9 61.1 11.5 19.8 24.6 38.1 38.5 55.4 12.6 15.8 26 30.9 40.5 44.7l74.7-20h0.1l0.2-0.1 0.2-0.1h0.1l39.3-10.6c12 8 24.6 15 37.5 21.4l10.7 39.7v0.2l0.1 0.2 20.1 74.8c19.1 5.6 38.8 9.7 58.9 12.7 22.2 3.6 44.7 5.4 67.2 5.6 22.9 0 45.3-2.2 67.3-5.6 19.9-2.9 39.5-7.2 58.9-12.7l20-74.8 0.1-0.3 0.1-0.2 10.6-39.6c12.9-6.5 25.6-13.5 37.4-21.5l39.4 10.6h0.2l0.2 0.1h0.1l74.7 20c14.4-13.8 27.8-28.8 40.5-44.7 14.2-17.5 27.1-36 38.5-55.4 11.5-19.8 20.6-40.3 28.8-61.1 7.4-18.8 13.7-38 18.5-57.3l-54.9-54.5z m0 0" p-id="5216"></path></svg>