<?xml version="1.0" standalone="no"?><!DOCTYPE svg PUBLIC "-//W3C//DTD SVG 1.1//EN" "http://www.w3.org/Graphics/SVG/1.1/DTD/svg11.dtd"><svg t="1582446163671" class="icon" viewBox="0 0 1024 1024" version="1.1" xmlns="http://www.w3.org/2000/svg" p-id="5334" xmlns:xlink="http://www.w3.org/1999/xlink" width="200" height="200"><defs><style type="text/css"></style></defs><path d="M823 64H201c-76.1 0-138 61.9-138 138v620c0 76.1 61.9 138 138 138h622c76.1 0 138-61.9 138-138V202c0-76.1-61.9-138-138-138z m67.9 758c0 37.5-30.5 68-68 68H201c-37.5 0-68-30.5-68-68V202c0-37.5 30.5-68 68-68h622c37.5 0 68 30.5 68 68v620z" p-id="5335"></path><path d="M783 363H613c-18.7 0-34 15.3-34 34s15.3 34 34 34h170c18.7 0 34-15.3 34-34s-15.3-34-34-34zM783 655H613c-18.7 0-34 15.3-34 34s15.3 34 34 34h170c18.7 0 34-15.3 34-34s-15.3-34-34-34zM352 558c-71.7 0-130 58.3-130 130s58.3 130 130 130 130-58.3 130-130-58.3-130-130-130z m0 192c-34.2 0-62-27.8-62-62s27.8-62 62-62 62 27.8 62 62-27.8 62-62 62zM489.2 231.9L331.8 393.5l-63.6-64.4c-13.2-13.4-34.7-13.5-48.1-0.3-13.4 13.2-13.5 34.7-0.3 48.1l112.4 113.6L538 279.3c13.1-13.5 12.8-35-0.6-48.1-13.5-13.1-35.1-12.8-48.2 0.7z" p-id="5336"></path></svg>