<?xml version="1.0" standalone="no"?><!DOCTYPE svg PUBLIC "-//W3C//DTD SVG 1.1//EN" "http://www.w3.org/Graphics/SVG/1.1/DTD/svg11.dtd"><svg t="1583205209935" class="icon" viewBox="0 0 1024 1024" version="1.1" xmlns="http://www.w3.org/2000/svg" p-id="5155" xmlns:xlink="http://www.w3.org/1999/xlink" width="200" height="200"><defs><style type="text/css"></style></defs><path d="M98 180.5h828c18.7 0 34-15.3 34-34s-15.3-34-34-34H98c-18.7 0-34 15.3-34 34s15.3 34 34 34zM926 841.5H98c-18.7 0-34 15.3-34 34s15.3 34 34 34h828c18.7 0 34-15.3 34-34s-15.3-34-34-34zM926 591.5H342c-18.7 0-34 15.3-34 34s15.3 34 34 34h584c18.7 0 34-15.3 34-34s-15.3-34-34-34zM926 361.5H342c-18.7 0-34 15.3-34 34s15.3 34 34 34h584c18.7 0 34-15.3 34-34s-15.3-34-34-34zM64.9 659.8L264 510.5 64.9 361.2z" p-id="5156"></path></svg>