<?xml version="1.0" standalone="no"?><!DOCTYPE svg PUBLIC "-//W3C//DTD SVG 1.1//EN" "http://www.w3.org/Graphics/SVG/1.1/DTD/svg11.dtd"><svg t="1581651614315" class="icon" viewBox="0 0 1024 1024" version="1.1" xmlns="http://www.w3.org/2000/svg" p-id="3064" xmlns:xlink="http://www.w3.org/1999/xlink" width="200" height="200"><defs><style type="text/css"></style></defs><path d="M713.2 555h63.9c19.9 102.6 124.3 76.6 130.6 74.9 0.3-0.1-0.2 0.9 31.7 54.2-80.8 74.3-5.2 143.7-0.7 147.7 0.2 0.2-0.3 0.7-31.5 54-106.1-30.2-128.5 67.9-129.8 74l-0.1 0.3h-64.7c-31-111.5-123.8-75.1-129.1-72.9l-0.2 0.1-34.2-56.3c88.2-83.7 0-145.3 0-145.3 0.5-0.8 4.2-6.9 33.7-56.1C692.1 660 712 561.3 713.1 555.3l0.1-0.3h63.9-63.9z m20.4-491c66.8 0 121 54.2 121 121v264h-66V185c0-30.4-24.6-55-55-55h-528c-30.4 0-55 24.6-55 55v616c0 30.4 24.6 55 55 55h264v66h-264c-66.8 0-121-54.2-121-121V185c0-66.8 54.2-121 121-121h528z m10.1 618.9c-41.2 0-74.6 33.4-74.6 74.6 0 41.2 33.4 74.6 74.6 74.6 41.2 0 74.6-33.4 74.6-74.6 0-41.2-33.4-74.6-74.6-74.6zM469.6 581v66h-176v-66h176z m176-176v66h-352v-66h352z m0-176v66h-352v-66h352z" p-id="3065"></path></svg>