<?xml version="1.0" standalone="no"?><!DOCTYPE svg PUBLIC "-//W3C//DTD SVG 1.1//EN" "http://www.w3.org/Graphics/SVG/1.1/DTD/svg11.dtd"><svg t="1583220412233" class="icon" viewBox="0 0 1024 1024" version="1.1" xmlns="http://www.w3.org/2000/svg" p-id="5274" xmlns:xlink="http://www.w3.org/1999/xlink" width="200" height="200"><defs><style type="text/css"></style></defs><path d="M512 64C264.5 64 64 264.5 64 512s200.5 448 448 448 448-200.6 448-448S759.4 64 512 64z m267.5 417.2c15.5-0.1 28.1 12.3 28.3 27.7 0.1 15.5-12.3 28.1-27.7 28.3l-240.4 2.4-2.5 240.3c-0.1 15.5-12.8 27.9-28.3 27.7-15.5-0.1-27.9-12.8-27.7-28.3l2.5-239.1-239.2 2.5c-15.5 0.1-28.1-12.3-28.3-27.7-0.1-15.5 12.3-28.1 27.7-28.3l240.4-2.4 2.5-240.3c0.1-15.5 12.8-27.9 28.3-27.7 15.5 0.1 27.9 12.8 27.7 28.3l-2.5 239.1 239.2-2.5z" p-id="5275"></path></svg>