<?xml version="1.0" standalone="no"?><!DOCTYPE svg PUBLIC "-//W3C//DTD SVG 1.1//EN" "http://www.w3.org/Graphics/SVG/1.1/DTD/svg11.dtd"><svg t="1581651621634" class="icon" viewBox="0 0 1024 1024" version="1.1" xmlns="http://www.w3.org/2000/svg" p-id="3183" xmlns:xlink="http://www.w3.org/1999/xlink" width="200" height="200"><defs><style type="text/css"></style></defs><path d="M462.2 760.9h74.7v-74.7h-74.7v74.7z m114.5-234c-37.4 24.9-54.8 54.7-54.8 87.1v22.4h-59.8V609c-2.5-44.8 19.9-84.6 59.7-114.5 44.8-32.3 67.2-64.7 62.2-94.6-5-44.8-29.9-69.7-77.1-72.2-54.8-2.5-89.6 29.9-102 97.1l-67.2-17.4c19.9-99.5 82.1-146.8 181.7-144.3 87.1 5 131.9 47.3 141.8 129.4 2.6 49.8-24.8 94.6-84.5 134.4zM512 128c-211.2 0-384 172.8-384 384s172.8 384 384 384 384-172.8 384-384-172.8-384-384-384z m0 832C265.6 960 64 758.4 64 512S265.6 64 512 64s448 201.6 448 448-201.6 448-448 448z" p-id="3184"></path></svg>