<?xml version="1.0" standalone="no"?><!DOCTYPE svg PUBLIC "-//W3C//DTD SVG 1.1//EN" "http://www.w3.org/Graphics/SVG/1.1/DTD/svg11.dtd"><svg t="1581651650732" class="icon" viewBox="0 0 1024 1024" version="1.1" xmlns="http://www.w3.org/2000/svg" p-id="3778" xmlns:xlink="http://www.w3.org/1999/xlink" width="200" height="200"><defs><style type="text/css"></style></defs><path d="M598.6 64l4.5 0.3c17.7 2.2 31.3 17.3 31.3 35.6v170.2h218l4.5 0.3c17.7 2.2 31.3 17.3 31.3 35.6v582.4H924c19.8 0 35.8 16 35.8 35.8 0 19.8-16 35.8-35.8 35.8H99.8C80 960 64 944 64 924.2c0-19.8 16-35.8 35.8-35.8h32.9V99.8l0.3-4.5c2.2-17.7 17.3-31.3 35.6-31.3h430z m-35.8 71.7H204.4v752.6h358.4V135.7z m253.8 206.1H637.4v546.6h179.2V341.8zM455.3 682.2c19.8 0 35.8 16 35.8 35.8 0 19.8-16 35.8-35.8 35.8H311.9c-19.8 0-35.8-16-35.8-35.8 0-19.8 16-35.8 35.8-35.8h143.4z m0-206c19.8 0 35.8 16 35.8 35.8 0 19.8-16 35.8-35.8 35.8H311.9c-19.8 0-35.8-16-35.8-35.8 0-19.8 16-35.8 35.8-35.8h143.4z m0-206.1c19.8 0 35.8 16 35.8 35.8 0 19.8-16 35.8-35.8 35.8H311.9c-19.8 0-35.8-16-35.8-35.8 0-19.8 16-35.8 35.8-35.8h143.4z" p-id="3779"></path></svg>