<?xml version="1.0" standalone="no"?><!DOCTYPE svg PUBLIC "-//W3C//DTD SVG 1.1//EN" "http://www.w3.org/Graphics/SVG/1.1/DTD/svg11.dtd"><svg t="1581651466813" class="icon" viewBox="0 0 1024 1024" version="1.1" xmlns="http://www.w3.org/2000/svg" p-id="2817" xmlns:xlink="http://www.w3.org/1999/xlink" width="200" height="200"><defs><style type="text/css"></style></defs><path d="M107 99c1.3 0 2.6 0.5 3.6 1.5 0.9 0.9 1.5 2.2 1.5 3.6v773h843c1.3 0 2.6 0.5 3.6 1.5s1.5 2.2 1.5 3.6V920c0 1.3-0.5 2.6-1.5 3.6-0.9 0.9-2.2 1.5-3.6 1.5H64V104c0-2.8 2.3-5 5-5h38z m576.6 595.4c3.2 0 6.4 2.3 8.8 6.9 2.4 4.6 3.7 10.6 3.7 16.7v129.2H569.6V718c0-6 1.2-12.1 3.6-16.7 2.4-4.6 5.6-6.9 8.8-6.9h101.6zM497.9 592c3.3 0 6.5 1.3 8.8 3.7 2.4 2.4 3.7 5.6 3.7 8.8v241.3H384V604.5c0-3.3 1.3-6.5 3.6-8.8s5.5-3.7 8.8-3.7h101.5zM294.6 282.9c3 0 6 1.1 8.3 3.4 2.3 2.3 3.4 5.3 3.4 8.3v550.7H188.5V294.5c0-3 1.1-6 3.4-8.3 2.2-2.2 5.2-3.4 8.3-3.4h94.4z m577.3 162.2c3.1 0 6.1 1.2 8.3 3.4 2.3 2.3 3.4 5.3 3.4 8.3v388.5H765.8V456.8c0-3 1.1-6 3.4-8.3 2.2-2.2 5.2-3.4 8.3-3.4h94.4z" p-id="2818"></path></svg>