<?xml version="1.0" standalone="no"?><!DOCTYPE svg PUBLIC "-//W3C//DTD SVG 1.1//EN" "http://www.w3.org/Graphics/SVG/1.1/DTD/svg11.dtd"><svg t="1582600732463" class="icon" viewBox="0 0 1024 1024" version="1.1" xmlns="http://www.w3.org/2000/svg" p-id="5006" xmlns:xlink="http://www.w3.org/1999/xlink" width="200" height="200"><defs><style type="text/css"></style></defs><path d="M840.5 960h-657C117.4 960 64 909.5 64 847.3V614.8c0-15.5 13.3-28.1 29.9-28.1h14.9c16.6 0 29.9 12.6 29.9 28.1v214.7c0 31 26.8 55.8 59.7 55.8h627.1c33 0 59.7-25.2 59.7-56.3V614.8c0-15.5 13.3-28.1 29.9-28.1h15c16.6 0 29.9 12.6 29.9 28.1v232.6c0 62.2-53.4 112.6-119.5 112.6zM274.9 443.3c7.5-7.1 19.7-7.1 27.3 0l172.6 166.8v-517c0-9.7 1.5-29.2 21.6-29.2h30.2c21.9 0 21.7 19.5 21.7 29.2V610l171.6-166.8c7.5-7.1 19.7-7.1 27.2 0l27.3 25.7c7.5 7.1 7.5 18.6 0 25.7L536 724.2c-0.6 0.6-12.6 7.5-24.6 7.5-12.1 0-24.4-6.9-25.1-7.5L247.8 494.6c-7.5-7.1-7.5-18.5 0-25.7l27.1-25.6z" p-id="5007"></path></svg>