<?xml version="1.0" standalone="no"?><!DOCTYPE svg PUBLIC "-//W3C//DTD SVG 1.1//EN" "http://www.w3.org/Graphics/SVG/1.1/DTD/svg11.dtd"><svg t="1581651683984" class="icon" viewBox="0 0 1024 1024" version="1.1" xmlns="http://www.w3.org/2000/svg" p-id="4492" xmlns:xlink="http://www.w3.org/1999/xlink" width="200" height="200"><defs><style type="text/css"></style></defs><path d="M616.4 895.2H392.8V677.9h146.7V536.8h-64.8v76.3H328V960h353.2V665.5h-64.8zM681.6 285.9C620.3 134.3 473.9 87 467.7 85.1L400.2 64l27.7 63.9c0.5 1.9 2.8 12.5-1.2 31-8 36.6-33.7 73.9-53.8 98.8-23.3 28.8-38.7 57.9-45.7 86.6-6.9 27.9-5.9 54.7 3 79.5 8 22.4 22.3 42.3 41.5 57.7 17.8 14.3 39.5 24.5 62.7 29.3l13.3-63.4c-26.8-5.6-48.4-23-56.4-45.3-10.2-28.7 1.2-65.5 32.1-103.7 37.6-46.5 60.5-90.9 68-131.9 40.4 22.6 99.3 66.9 130.3 143.6 13.3 32.8 14.5 61.3 3.7 84.7-18.4 39.8-66.2 56.1-66.7 56.3l0.2-0.1 19.9 61.7c3-1 74.5-24.6 105.2-90.1 18.7-40.3 17.9-86.3-2.4-136.7z" p-id="4493"></path><path d="M504.8 485.8m-33.4 0a33.4 33.4 0 1 0 66.8 0 33.4 33.4 0 1 0-66.8 0Z" p-id="4494"></path></svg>