<?xml version="1.0" standalone="no"?><!DOCTYPE svg PUBLIC "-//W3C//DTD SVG 1.1//EN" "http://www.w3.org/Graphics/SVG/1.1/DTD/svg11.dtd"><svg t="1581651676740" class="icon" viewBox="0 0 1024 1024" version="1.1" xmlns="http://www.w3.org/2000/svg" p-id="4254" xmlns:xlink="http://www.w3.org/1999/xlink" width="200" height="200"><defs><style type="text/css"></style></defs><path d="M925.3 477.8H179.7L500 157.5c13.3-13.3 13.3-35.1 0-48.4-13.3-13.3-35.1-13.3-48.4 0L73.4 487.4c-6.8 6.8-10.1 15.7-10 24.6-0.1 8.9 3.2 17.8 10 24.6l378.3 378.3c13.3 13.3 35.1 13.3 48.4 0 13.3-13.3 13.3-35.1 0-48.4L179.7 546.2h745.5c18.8 0 34.2-15.4 34.2-34.2 0.1-18.8-15.3-34.2-34.1-34.2z" p-id="4255"></path></svg>