<?xml version="1.0" standalone="no"?><!DOCTYPE svg PUBLIC "-//W3C//DTD SVG 1.1//EN" "http://www.w3.org/Graphics/SVG/1.1/DTD/svg11.dtd"><svg t="1581651680628" class="icon" viewBox="0 0 1024 1024" version="1.1" xmlns="http://www.w3.org/2000/svg" p-id="4373" xmlns:xlink="http://www.w3.org/1999/xlink" width="200" height="200"><defs><style type="text/css"></style></defs><path d="M389.8 64c22.4 0 40.7 18.4 40.7 40.7 0 22.4-18.3 40.8-40.7 40.8H145.5v244.4c0 22.4-18.4 40.7-40.7 40.7-22.4 0-40.8-18.3-40.8-40.7V104.7C64 82.4 82.4 64 104.8 64h285z m0 814.5c22.4 0 40.7 18.3 40.7 40.7 0 22.5-18.3 40.8-40.7 40.8h-285c-1 0-1.9-0.1-2.8-0.1-0.4 0-0.8 0-1.2-0.1l-1.6-0.2c-0.8-0.1-1.6-0.2-2.4-0.4-0.3-0.1-0.6-0.1-0.8-0.2-7.6-1.6-14.5-5.4-20-10.8-5.5-5.6-9.4-12.7-11-20.4 0-0.1-0.1-0.2-0.1-0.4-0.1-1-0.3-2.1-0.4-3.2-0.1-0.3-0.1-0.5-0.1-0.8-0.1-1.2-0.1-2.4-0.1-3.6 0-0.1-0.1-0.3-0.1-0.5v-285c0-22.5 18.4-40.8 40.8-40.8 22.3 0 40.7 18.3 40.7 40.8V821l203.6-203.7c15.9-15.8 41.8-15.8 57.6 0 15.8 15.9 15.8 41.8 0 57.6L203.1 878.5h186.7z m570.1-775.6c0 0.6 0.1 1.2 0.1 1.8v285.1c0 22.4-18.3 40.7-40.8 40.7-22.4 0-40.7-18.3-40.7-40.7V203L674.9 406.6c-15.9 15.9-41.7 15.9-57.6 0-15.8-15.9-15.8-41.6 0-57.6L821 145.5H634.2c-22.5 0-40.8-18.4-40.8-40.8 0-22.3 18.3-40.7 40.8-40.7h285c0.8 0 1.6 0.1 2.3 0.1 0.6 0.1 1.2 0.1 1.8 0.1 0.4 0 0.8 0.1 1.1 0.1 1 0.1 2 0.2 2.9 0.4 0.1 0 0.1 0.1 0.2 0.1 15.9 3.2 28.3 15.6 31.5 31.4 0 0.1 0 0.2 0.1 0.3l0.4 2.9c0.1 0.4 0.1 0.7 0.1 1.2 0.2 0.8 0.2 1.6 0.3 2.3z m-40.7 490.5c22.5 0 40.8 18.3 40.8 40.8v285c0 22.5-18.3 40.8-40.8 40.8h-285c-22.5 0-40.8-18.3-40.8-40.8 0-22.4 18.3-40.7 40.8-40.7h244.3V634.2c0-22.5 18.3-40.8 40.7-40.8z" p-id="4374"></path></svg>