<?xml version="1.0" standalone="no"?><!DOCTYPE svg PUBLIC "-//W3C//DTD SVG 1.1//EN" "http://www.w3.org/Graphics/SVG/1.1/DTD/svg11.dtd"><svg t="1581651687707" class="icon" viewBox="0 0 1024 1024" version="1.1" xmlns="http://www.w3.org/2000/svg" p-id="4612" xmlns:xlink="http://www.w3.org/1999/xlink" width="200" height="200"><defs><style type="text/css"></style></defs><path d="M701.5 858.3c10.3 0 17.2 6.9 17.2 17.2V910c0 10.3-6.9 17.2-17.2 17.2H325.9c-10.3 0-17.2-6.9-17.2-17.2v-34.5c0-10.3 6.9-17.2 17.2-17.2h375.6zM891.1 96.7c37.9 0 68.9 34.5 68.9 68.9V717c0 37.9-31 68.9-68.9 68.9H132.9C95 786 64 755 64 717V165.7c0-37.9 31-68.9 68.9-68.9h758.2z m-34.5 69H167.4c-17.2 0-34.5 17.2-34.5 34.5v482.5c0 17.2 17.2 34.5 34.5 34.5h689.2c17.2 0 34.5-17.2 34.5-34.5V200.1c0-17.2-17.3-34.4-34.5-34.4zM359 268.4v368.4h-69.1V268.4H359z m184.2 230.3v138.2h-69.1V498.7h69.1z m184.2-138.2v276.3h-69.1V360.5h69.1z" p-id="4613"></path></svg>